<svg width="22" height="22" viewBox="0 0 22 22" fill="none" xmlns="http://www.w3.org/2000/svg">
<g clip-path="url(#clip0_295_49183)">
<path fill-rule="evenodd" clip-rule="evenodd" d="M11 0.435059C10.6882 0.435059 10.3828 0.524265 10.1201 0.692149C9.86068 0.857888 9.65342 1.09347 9.52208 1.3717L7.02734 6.40827C7.02244 6.41817 7.01774 6.42817 7.01326 6.43827L7.00817 6.44457L7.00063 6.44751C6.99106 6.44856 6.98151 6.4498 6.97198 6.45122L1.47893 7.265C1.17532 7.29452 0.8858 7.40845 0.643305 7.5942C0.392392 7.7864 0.202592 8.04722 0.0968973 8.34509C-0.0087972 8.64295 -0.0258521 8.96508 0.0477993 9.27245C0.121166 9.57861 0.281402 9.85705 0.509206 10.0743L4.53014 13.9539L4.5393 13.9626C4.54504 13.9679 4.54936 13.9747 4.55184 13.9821C4.55432 13.9896 4.55491 13.9975 4.55352 14.0053L3.59448 19.6179C3.54184 19.9218 3.57517 20.2358 3.69115 20.5214C3.8073 20.8078 4.00146 21.0556 4.25153 21.2369C4.5016 21.4181 4.79753 21.5256 5.10566 21.547C5.41317 21.5683 5.72051 21.5031 5.99284 21.3589L5.99449 21.3579L10.9437 18.7423C10.9614 18.7346 10.9806 18.7305 11 18.7305C11.0194 18.7305 11.0386 18.7346 11.0563 18.7423L16.0055 21.3579C16.2779 21.5026 16.5866 21.5685 16.8943 21.547C17.2024 21.5256 17.4983 21.4181 17.7485 21.2369C17.9985 21.0556 18.1927 20.8078 18.3089 20.5214C18.4248 20.2358 18.4583 19.9234 18.4058 19.6196L18.4055 19.6179L17.4474 14.0104L17.4465 14.0053C17.445 13.9975 17.4457 13.9896 17.4482 13.9821C17.4505 13.9747 17.4549 13.9679 17.4606 13.9626L17.4699 13.9539L21.4908 10.0743C21.7185 9.85701 21.8788 9.5786 21.9522 9.27245C22.0257 8.96508 22.0088 8.64295 21.903 8.34509C21.7974 8.04722 21.6076 7.7864 21.3566 7.5942C21.1142 7.40845 20.8247 7.29452 20.5211 7.265L15.028 6.45122C15.0185 6.4498 15.0089 6.44856 14.9993 6.44751L14.9918 6.44457L14.9867 6.43827C14.9822 6.42817 14.9775 6.41817 14.9726 6.40827L12.4779 1.37168C12.3465 1.09346 12.1393 0.857883 11.8799 0.692149C11.6171 0.524265 11.3118 0.435059 11 0.435059Z" fill="white"/>
</g>
<defs>
<clipPath id="clip0_295_49183">
<rect width="22" height="22" fill="white"/>
</clipPath>
</defs>
</svg>
