<?xml version="1.0" standalone="no"?>
<!DOCTYPE svg PUBLIC "-//W3C//DTD SVG 20010904//EN"
 "http://www.w3.org/TR/2001/REC-SVG-20010904/DTD/svg10.dtd">
<svg version="1.0" xmlns="http://www.w3.org/2000/svg"
 width="2000.000000pt" height="2000.000000pt" viewBox="0 0 2000.000000 2000.000000"
 preserveAspectRatio="xMidYMid meet">
<metadata>
Created by potrace 1.14, written by Peter Selinger 2001-2017
</metadata>
<g transform="translate(0.000000,2000.000000) scale(0.100000,-0.100000)"
fill="#000000" stroke="none">
<path d="M0 10000 l0 -10000 10000 0 10000 0 0 10000 0 10000 -10000 0 -10000
0 0 -10000z m7525 3016 c320 -58 594 -169 865 -351 762 -511 1246 -1446 1296
-2508 l7 -149 1501 1501 c826 826 1506 1501 1511 1501 16 0 3005 -2994 3005
-3011 0 -18 -2985 -3004 -3004 -3004 -7 0 -688 672 -1512 1494 l-1499 1495
-12 -183 c-13 -204 -25 -306 -54 -466 -221 -1198 -1016 -2121 -2011 -2334
-166 -35 -277 -44 -491 -38 -263 7 -443 40 -671 126 -580 218 -1085 698 -1400
1329 -179 358 -290 735 -343 1162 -21 176 -24 626 -5 795 82 716 338 1334 758
1824 400 468 924 761 1484 830 114 14 469 6 575 -13z"/>
<path d="M6963 12949 c-471 -55 -932 -288 -1303 -659 -680 -681 -1006 -1763
-849 -2820 150 -1011 722 -1859 1504 -2231 290 -138 559 -199 873 -199 234 0
423 30 636 101 734 246 1334 903 1614 1769 242 750 224 1588 -50 2320 -356
951 -1098 1605 -1946 1714 -131 17 -357 19 -479 5z m147 -213 c0 -14 -11 -38
-24 -53 -23 -27 -29 -28 -125 -31 -56 -2 -101 -8 -101 -12 0 -23 35 -42 67
-37 l33 6 -15 -28 c-8 -16 -21 -31 -30 -34 -32 -13 -12 -133 28 -166 36 -29
117 33 117 89 0 33 -20 53 -40 40 -8 -6 -18 -10 -22 -10 -14 0 -8 43 9 62 40
45 103 -1 103 -76 0 -49 -25 -102 -61 -128 -37 -28 -131 -35 -165 -14 -53 35
-84 164 -50 212 12 17 12 22 0 39 -15 20 -19 82 -6 101 16 24 55 34 134 34 52
0 92 5 108 14 36 20 40 19 40 -8z m424 -29 c7 -11 3 -37 -13 -90 -15 -46 -21
-85 -17 -101 5 -21 3 -24 -11 -19 -10 3 -24 10 -30 16 -17 13 -16 80 1 122 17
40 9 45 -22 12 -61 -65 -71 -250 -14 -272 24 -9 62 24 85 73 13 31 22 76 25
130 4 78 6 82 28 82 36 0 58 -50 51 -117 -7 -68 -61 -170 -107 -200 -51 -35
-95 -31 -140 15 -83 83 -76 243 14 331 52 50 124 59 150 18z m-815 -103 c-14
-15 -44 -28 -83 -37 l-61 -13 -3 -67 c-4 -81 11 -141 43 -173 30 -30 40 -30
71 2 29 28 27 57 -7 106 l-20 28 39 0 c69 0 94 -51 60 -120 -28 -55 -99 -96
-147 -85 -43 9 -81 42 -102 89 -25 56 -24 113 5 170 23 46 23 47 2 40 -45 -14
-64 -23 -71 -33 -11 -19 -25 -12 -25 12 0 58 51 88 187 112 47 8 95 21 107 29
19 13 21 12 24 -11 2 -16 -5 -34 -19 -49z m1121 10 c58 -27 83 -34 110 -30
l35 5 -33 -29 c-38 -35 -55 -37 -121 -11 l-50 19 -15 -39 c-9 -22 -16 -43 -16
-48 0 -4 19 -14 43 -21 53 -17 52 -17 37 -35 -14 -17 -65 -20 -75 -5 -12 20
-20 9 -33 -42 -22 -93 -76 -122 -137 -73 -33 27 -29 43 6 25 30 -16 42 0 64
88 24 97 49 149 76 157 22 7 22 8 4 21 -10 8 -27 14 -37 14 -23 0 -23 16 0 29
30 18 66 12 142 -25z m-1487 -118 c3 -29 18 -79 35 -112 31 -62 110 -144 138
-144 27 0 10 -24 -26 -36 -18 -6 -40 -20 -49 -31 -22 -28 -81 -63 -107 -63
-35 0 -72 38 -120 120 -25 43 -55 88 -66 100 l-21 23 -18 -22 c-24 -29 -29
-27 -29 13 0 39 37 76 75 76 23 0 31 -10 118 -147 54 -84 76 -100 118 -83 16
7 29 14 29 17 0 2 -14 16 -30 30 -42 35 -76 97 -95 172 -18 67 -15 100 11 125
25 25 31 19 37 -38z m1881 -77 c26 -18 68 -55 93 -85 25 -29 59 -58 75 -65 22
-9 26 -14 17 -25 -6 -8 -27 -14 -46 -14 -27 0 -44 10 -84 47 l-50 46 -35 -16
c-47 -23 -129 -101 -144 -136 -15 -37 -1 -66 36 -75 35 -9 69 15 84 59 14 43
21 44 43 6 23 -38 21 -55 -6 -86 -67 -79 -227 -11 -227 96 0 88 75 163 178
178 l45 6 -41 28 c-22 16 -46 26 -51 22 -21 -13 -11 14 11 29 32 23 48 20 102
-15z m-2178 -116 c10 -36 -12 -71 -69 -113 -55 -40 -56 -52 -10 -146 48 -99
121 -134 151 -72 17 35 2 72 -38 93 -39 20 -38 31 5 45 43 14 72 1 90 -44 21
-49 5 -103 -44 -148 -42 -40 -82 -48 -133 -29 -66 25 -125 136 -112 209 5 28
4 33 -7 27 -29 -17 -59 -49 -59 -64 -1 -27 -30 19 -30 47 0 32 55 84 147 140
40 24 75 52 78 63 9 27 23 23 31 -8z m2482 -118 c16 -13 46 -49 67 -80 21 -30
51 -60 67 -67 36 -16 35 -23 -2 -38 -55 -23 -101 6 -168 103 -35 51 -52 54
-52 7 0 -19 7 -33 20 -40 37 -20 23 -33 -30 -27 -44 5 -53 3 -81 -21 -31 -26
-59 -76 -59 -107 0 -19 57 -45 97 -45 56 0 99 55 53 67 -28 7 -25 31 5 45 55
25 98 -45 59 -100 -22 -32 -87 -62 -134 -62 -34 0 -47 7 -90 48 -42 41 -50 54
-50 86 0 20 7 50 14 65 21 39 82 91 117 98 15 3 31 14 34 24 8 25 62 69 85 69
10 0 32 -11 48 -25z m-1131 -14 c296 -58 561 -214 799 -471 305 -329 515 -822
585 -1375 19 -148 16 -532 -5 -685 -59 -436 -188 -791 -401 -1110 -254 -381
-587 -623 -964 -700 -123 -25 -321 -27 -442 -5 -270 50 -520 187 -739 405
-353 351 -581 860 -651 1450 -19 155 -16 517 5 675 116 874 589 1565 1215
1775 48 16 124 36 167 44 118 21 314 20 431 -3z m-1669 -169 c4 -30 -26 -64
-52 -60 -28 4 -33 44 -10 69 24 26 58 21 62 -9z m142 -98 c68 -65 93 -77 132
-60 16 7 16 4 5 -35 -25 -84 -62 -79 -175 27 -61 56 -88 75 -102 71 -11 -3
-20 -2 -20 1 0 15 56 62 73 62 10 0 50 -30 87 -66z m-232 4 c24 -24 14 -73
-25 -119 -21 -24 -41 -47 -46 -50 -13 -9 19 -65 66 -116 65 -71 126 -93 147
-54 25 48 2 94 -56 110 -37 10 -35 20 9 45 33 19 35 19 62 2 83 -54 58 -191
-42 -233 -87 -36 -211 63 -216 173 -1 19 -4 34 -7 34 -10 0 -50 -67 -50 -83 0
-22 -9 -22 -26 1 -33 43 -11 92 90 200 36 38 66 77 66 86 0 19 11 21 28 4z
m3132 -20 c33 -17 50 -34 66 -67 12 -24 29 -50 39 -57 23 -17 11 -34 -24 -34
-33 0 -48 15 -66 67 -13 35 -16 38 -50 36 -112 -7 -265 -166 -196 -203 37 -19
101 -10 101 16 0 17 12 18 28 2 34 -34 -12 -98 -70 -98 -66 0 -138 72 -138
138 0 74 63 160 145 198 63 30 109 30 165 2z m169 -244 l24 -17 -46 -17 c-24
-9 -61 -30 -81 -45 l-37 -28 45 -29 c43 -28 46 -29 75 -14 39 20 75 20 106 0
33 -21 32 -34 -3 -34 -31 0 -50 -12 -135 -82 -97 -80 -132 -92 -187 -63 -36
19 -39 35 -7 35 24 0 105 48 129 77 10 13 10 17 0 21 -7 2 -26 15 -42 28 -16
14 -31 20 -34 15 -4 -5 -27 -17 -52 -27 -44 -17 -47 -17 -80 1 -42 23 -43 31
-3 39 18 3 62 30 99 60 37 30 82 64 101 75 41 25 96 27 128 5z m-3524 -59 c14
-13 25 -31 25 -40 0 -24 -26 -80 -60 -131 -18 -25 -30 -48 -27 -51 3 -3 37 25
76 61 38 36 81 68 96 72 40 10 93 -2 130 -31 62 -46 59 -101 -9 -184 -50 -60
-62 -92 -46 -121 15 -28 -2 -25 -42 8 l-33 27 28 -33 c34 -42 34 -54 -1 -93
l-27 -30 -114 40 c-141 50 -184 53 -205 12 l-15 -29 52 -4 c100 -9 257 -114
257 -173 0 -39 -18 -39 -62 0 -74 68 -198 110 -287 98 -41 -6 -43 -5 -33 14 6
11 18 26 27 33 9 7 13 21 10 31 -10 30 17 99 48 125 37 31 61 28 191 -22 48
-19 99 -34 112 -34 23 0 24 2 20 57 -5 71 2 86 67 145 44 40 50 50 41 65 -20
33 -49 26 -112 -26 -115 -96 -171 -113 -226 -70 -39 30 -33 62 30 172 38 67
53 104 49 117 -9 28 11 25 40 -5z m3666 -177 c1 -13 2 -30 3 -39 1 -8 10 -24
20 -34 24 -24 46 -77 46 -109 0 -37 -55 -78 -155 -115 -50 -18 -98 -41 -108
-51 -17 -16 -17 -18 -3 -33 23 -22 20 -27 -13 -27 -20 0 -36 9 -50 26 -45 57
-23 85 109 138 142 57 167 81 144 140 -5 13 -12 10 -42 -14 -50 -39 -148 -70
-222 -70 -53 0 -64 3 -88 27 l-27 28 75 7 c42 4 101 16 132 28 60 22 142 79
151 104 9 24 27 19 28 -6z m111 -384 c59 -30 90 -112 51 -133 -10 -5 -47 -12
-83 -16 -36 -4 -76 -14 -88 -22 -29 -18 -36 -12 -28 21 7 30 33 45 101 61 l50
12 -43 12 c-60 17 -139 -1 -195 -43 -74 -56 -56 -106 37 -106 57 0 145 22 188
48 37 21 56 5 42 -35 -21 -60 -171 -101 -271 -74 -88 24 -121 116 -68 193 61
90 212 130 307 82z m-3906 -195 c71 -22 112 -29 147 -26 26 2 47 0 47 -5 0 -5
-13 -23 -29 -39 -38 -38 -63 -37 -203 7 -110 34 -155 39 -203 19 -18 -7 -18
-6 4 18 29 32 78 56 112 57 15 0 71 -14 125 -31z m4009 -104 c14 -13 25 -28
25 -32 0 -4 -21 -8 -47 -8 -30 0 -80 -13 -130 -33 -45 -17 -97 -32 -115 -32
l-33 0 -2 -75 c-3 -74 -3 -75 22 -75 18 0 25 5 25 20 0 23 10 26 28 8 17 -17
15 -38 -5 -60 -22 -24 -68 -23 -92 3 -24 25 -41 103 -40 173 1 31 -3 51 -12
57 -21 13 -3 22 20 9 17 -9 43 -3 138 29 141 48 184 51 218 16z m-4234 -249
c87 -48 219 -57 291 -21 17 8 33 15 35 15 8 0 2 -27 -12 -53 -11 -21 -11 -34
-3 -57 14 -41 2 -97 -27 -126 -20 -20 -34 -24 -87 -24 -35 0 -88 4 -120 9 -79
13 -101 6 -94 -30 7 -35 0 -36 -31 -7 -26 25 -31 74 -9 103 13 18 21 18 132 9
155 -14 193 -3 194 53 0 20 -3 22 -27 12 -63 -24 -221 18 -280 73 -22 21 -32
68 -14 68 5 0 28 -11 52 -24z m4234 -65 c49 -22 85 -69 85 -112 0 -42 -20 -51
-107 -48 -43 2 -88 0 -100 -5 -19 -6 -23 -4 -23 12 0 32 29 47 99 52 l66 5
-35 19 c-103 57 -310 -17 -250 -89 6 -8 37 -19 68 -26 55 -11 129 -5 210 17
21 6 23 4 20 -21 -5 -48 -47 -70 -141 -73 -74 -3 -88 0 -137 25 -41 21 -60 38
-74 67 -18 38 -18 39 0 85 16 36 31 53 73 78 29 18 65 34 80 36 46 9 120 -1
166 -22z m-4253 -268 c26 -23 32 -77 18 -155 -6 -38 -9 -72 -6 -76 15 -14 41
17 46 54 l5 39 28 -27 c15 -15 27 -31 27 -37 0 -30 143 -19 170 14 25 30 -23
113 -76 129 -28 9 -64 -18 -46 -35 18 -20 15 -29 -12 -29 -49 0 -70 46 -40 88
12 18 25 22 68 22 117 0 187 -107 141 -216 -20 -48 -88 -79 -158 -71 -27 4
-58 14 -68 23 -16 14 -24 15 -45 5 -19 -8 -36 -8 -65 -1 -58 16 -65 39 -50
155 9 67 9 100 2 114 -6 11 -11 23 -11 26 0 11 54 -5 72 -22z m4215 -38 c93
-28 150 -119 124 -198 -7 -19 -9 -47 -5 -61 6 -24 4 -26 -17 -18 -35 13 -49
47 -37 86 20 62 17 70 -37 88 -88 30 -223 19 -244 -21 -23 -42 33 -91 103 -91
33 0 37 3 31 18 -4 9 -10 29 -12 44 -4 23 -1 28 23 33 16 4 35 8 42 11 14 4
16 -12 2 -21 -6 -4 -6 -15 0 -31 36 -94 -33 -147 -151 -114 -107 30 -130 175
-38 242 33 25 96 47 135 48 17 0 53 -7 81 -15z m-4240 -295 c33 -19 53 -66 53
-122 0 -24 4 -28 28 -28 46 0 70 10 66 28 -14 76 -14 82 6 82 25 0 54 -44 47
-71 -4 -15 -2 -19 10 -15 8 3 39 9 68 12 49 6 56 4 80 -20 22 -22 25 -32 20
-59 -10 -47 -18 -55 -25 -27 -5 23 -11 25 -56 24 -27 0 -82 -7 -121 -14 -71
-14 -73 -14 -104 9 l-32 24 6 -48 c7 -47 7 -47 -16 -33 -37 25 -47 57 -47 156
0 73 -3 94 -15 98 -15 6 -21 24 -7 24 4 0 21 -9 39 -20z m4091 -6 c30 -21 29
-54 -2 -54 -13 0 -34 -9 -47 -19 -20 -16 -22 -23 -14 -47 10 -27 47 -55 91
-68 18 -6 20 -3 16 25 -6 38 16 59 62 59 17 0 48 5 69 11 34 9 38 13 33 35 -8
31 8 31 39 -1 30 -29 31 -45 5 -77 -15 -20 -31 -27 -70 -30 -29 -3 -59 -12
-67 -21 -14 -14 -12 -16 23 -26 55 -15 81 -36 94 -76 8 -25 8 -40 0 -55 -12
-23 -30 -27 -30 -7 0 26 -35 45 -144 82 -60 20 -123 45 -139 57 -37 27 -56 71
-52 127 4 77 78 124 133 85z m-1139 -2030 c66 -46 56 -143 -26 -251 -13 -18
-21 -33 -18 -33 3 0 31 13 63 29 91 46 97 46 112 11 8 -18 9 -35 4 -40 -5 -5
-72 -38 -149 -74 -127 -58 -141 -63 -153 -48 -28 37 -24 58 27 137 80 121 90
185 32 193 -30 5 -53 -16 -49 -46 3 -21 -5 -28 -49 -47 -56 -25 -63 -22 -63
33 0 98 188 192 269 136z m-1339 -19 c33 -15 40 -23 36 -39 -7 -28 -145 -316
-152 -316 -2 0 -27 11 -54 25 l-49 25 54 115 54 115 -49 0 c-28 0 -50 5 -50
10 0 6 9 27 19 48 l19 37 65 -1 c41 0 81 -7 107 -19z m406 -121 c54 -39 69
-71 69 -137 0 -79 -26 -147 -70 -186 -43 -38 -87 -46 -161 -31 -68 14 -124 61
-124 104 0 30 1 30 69 15 35 -7 50 -16 54 -30 4 -14 14 -19 36 -19 25 0 36 7
51 33 27 43 25 47 -13 35 -44 -14 -112 6 -149 42 -39 39 -40 105 -1 150 36 43
56 50 140 47 54 -2 79 -7 99 -23z m504 -6 c46 -32 72 -87 77 -166 8 -123 -49
-188 -175 -199 -43 -4 -67 -1 -91 11 -30 16 -60 60 -49 72 12 12 118 17 118 5
0 -15 55 -14 68 2 5 6 11 28 14 48 l4 36 -29 -20 c-21 -16 -43 -21 -87 -22
-54 0 -63 3 -92 33 -28 28 -33 39 -33 81 0 39 5 55 25 77 60 64 186 85 250 42z"/>
<path d="M6950 11718 c0 -37 1 -38 35 -38 34 0 35 1 35 38 0 36 -1 37 -35 37
-34 0 -35 -1 -35 -37z"/>
<path d="M6990 11575 l0 -65 70 0 70 0 0 65 0 65 -70 0 -70 0 0 -65z"/>
<path d="M7170 11415 l0 -55 55 0 55 0 0 55 0 55 -55 0 -55 0 0 -55z"/>
<path d="M7010 11395 l0 -65 60 0 60 0 0 65 0 65 -60 0 -60 0 0 -65z"/>
<path d="M7170 11245 l0 -76 76 3 76 3 0 70 0 70 -76 3 -76 3 0 -76z"/>
<path d="M6960 11200 l0 -80 85 0 85 0 0 80 0 80 -85 0 -85 0 0 -80z"/>
<path d="M7423 11197 c11 -64 3 -166 -18 -228 -13 -39 -72 -116 -81 -107 -1 2
4 30 12 63 14 62 18 152 8 179 -9 23 -174 24 -174 1 0 -12 14 -15 65 -15 l65
0 0 -75 0 -76 -72 3 -73 3 -3 63 -3 62 -91 0 -92 0 -32 -35 c-44 -48 -54 -45
-54 18 -1 56 -17 110 -45 154 l-18 27 -18 -50 c-11 -30 -46 -80 -90 -129 -39
-44 -83 -98 -99 -121 -105 -149 -70 -340 93 -511 41 -43 88 -85 104 -95 l28
-16 0 86 c0 78 4 94 32 147 17 33 68 110 114 170 45 61 89 127 97 148 8 20 19
37 23 37 15 0 31 -74 27 -129 -3 -40 -18 -86 -52 -161 -80 -173 -76 -245 27
-442 22 -43 40 -78 41 -78 1 0 2 23 3 52 4 92 48 162 204 325 148 155 188 215
210 321 14 68 7 197 -15 268 -18 59 -86 168 -114 183 -18 10 -19 8 -9 -42z"/>
<path d="M6347 10690 c-10 -108 7 -260 39 -362 18 -58 38 -93 73 -136 94 -113
100 -117 569 -391 311 -182 462 -346 450 -487 l-5 -53 51 26 c76 38 152 99
186 151 40 61 42 139 5 212 -43 84 -176 160 -545 310 -239 97 -394 172 -485
233 -125 85 -254 239 -290 346 -8 26 -21 90 -28 142 l-13 94 -7 -85z"/>
<path d="M7691 10594 c-17 -58 -75 -136 -195 -263 -130 -137 -166 -192 -166
-253 0 -26 4 -58 9 -71 12 -30 64 -90 101 -117 l28 -20 -9 38 c-15 67 -11 164
10 198 10 17 65 86 121 153 143 172 150 184 149 245 0 28 -8 70 -17 93 l-18
43 -13 -46z"/>
<path d="M7762 10411 l-22 -43 33 -37 c126 -139 187 -303 187 -501 0 -133 -21
-223 -80 -345 -76 -155 -195 -279 -341 -354 l-76 -38 161 -6 c114 -3 190 -11
260 -27 104 -23 132 -19 110 18 -6 9 -32 54 -59 99 l-47 82 35 58 c19 32 44
77 56 101 l21 42 118 0 118 0 18 98 c9 53 19 105 21 116 3 15 -17 28 -104 68
l-108 51 -6 91 c-3 50 -9 100 -12 112 -6 18 8 32 87 89 51 38 94 69 96 70 2 2
-84 198 -94 213 -1 2 -53 -8 -115 -22 -62 -14 -116 -23 -120 -18 -3 4 -30 34
-60 67 l-54 60 -23 -44z"/>
<path d="M6393 10170 c-10 -27 -15 -30 -60 -31 -135 -3 -172 -5 -178 -10 -3
-4 -15 -52 -25 -109 -24 -121 -31 -108 100 -164 l87 -37 6 -77 c3 -42 9 -93
12 -112 6 -35 5 -36 -86 -104 l-93 -70 89 -17 c108 -20 224 -58 305 -99 33
-17 62 -30 66 -30 3 0 -12 20 -34 45 -84 95 -152 266 -167 415 -8 86 10 231
39 301 l23 56 -34 37 c-18 20 -34 36 -36 36 -1 0 -8 -13 -14 -30z"/>
<path d="M6503 9950 c88 -149 105 -164 433 -370 102 -64 225 -182 272 -261 18
-31 38 -82 44 -115 7 -32 13 -61 15 -63 4 -6 87 46 106 67 27 30 32 85 13 137
-38 98 -261 269 -552 423 -148 77 -238 133 -319 196 l-39 31 27 -45z"/>
<path d="M6699 9521 c30 -58 66 -96 150 -160 147 -112 241 -238 241 -322 0
-18 2 -19 30 -4 42 22 62 56 54 91 -22 92 -76 147 -269 274 -77 51 -157 108
-178 126 -20 19 -39 34 -42 34 -3 0 3 -17 14 -39z"/>
<path d="M6088 9285 l-3 -105 77 0 c265 0 525 -97 799 -298 16 -12 39 -10 156
14 121 25 160 29 318 29 267 0 418 -41 594 -159 29 -20 54 -36 56 -36 3 0 -31
123 -55 196 l-21 61 -97 22 c-198 44 -361 52 -541 25 -104 -15 -295 -71 -338
-100 -12 -7 -27 -14 -34 -14 -6 0 -46 34 -89 76 -134 131 -329 258 -500 324
-71 27 -246 70 -287 70 l-32 0 -3 -105z"/>
<path d="M6916 7574 c-26 -25 -20 -72 9 -86 41 -18 75 3 75 46 0 51 -50 75
-84 40z"/>
<path d="M7406 7565 c-9 -9 -16 -27 -16 -40 0 -53 67 -75 96 -31 33 52 -36
114 -80 71z"/>
</g>
</svg>
